<svg xmlns="http://www.w3.org/2000/svg" viewBox="0 0 900 600" role="img" aria-label="Охлаждение">
<defs><linearGradient id="bg" x1="0" x2="1" y1="0" y2="1"><stop stop-color="#11131b"/><stop offset="1" stop-color="#05060a"/></linearGradient><radialGradient id="glow"><stop stop-color="#7656ff" stop-opacity=".5"/><stop offset="1" stop-color="#7656ff" stop-opacity="0"/></radialGradient></defs>
<rect width="900" height="600" fill="url(#bg)"/><circle cx="690" cy="120" r="260" fill="url(#glow)"/>
<g fill="none" stroke="#a896ff" stroke-width="12" stroke-linecap="round" stroke-linejoin="round"><circle cx="450" cy="290" r="145"/><circle cx="450" cy="290" r="35"/><path d="M450 145c70 20 95 62 68 110-37 66-68 40-68 35M595 290c-20 70-62 95-110 68-66-37-40-68-35-68M450 435c-70-20-95-62-68-110 37-66 68-40 68-35M305 290c20-70 62-95 110-68 66 37 40 68 35 68"/></g>
<text x="52" y="530" fill="#fff" font-family="-apple-system,BlinkMacSystemFont,Segoe UI,Arial,sans-serif" font-size="34" font-weight="700">Охлаждение</text>
<text x="52" y="566" fill="#8d90a4" font-family="-apple-system,BlinkMacSystemFont,Segoe UI,Arial,sans-serif" font-size="18" letter-spacing="3">SETUPLAB OFFLINE</text>
</svg>