<svg xmlns="http://www.w3.org/2000/svg" viewBox="0 0 900 600" role="img" aria-label="Процессор">
<defs><linearGradient id="bg" x1="0" x2="1" y1="0" y2="1"><stop stop-color="#11131b"/><stop offset="1" stop-color="#05060a"/></linearGradient><radialGradient id="glow"><stop stop-color="#7656ff" stop-opacity=".5"/><stop offset="1" stop-color="#7656ff" stop-opacity="0"/></radialGradient></defs>
<rect width="900" height="600" fill="url(#bg)"/><circle cx="690" cy="120" r="260" fill="url(#glow)"/>
<g fill="none" stroke="#a896ff" stroke-width="12" stroke-linecap="round" stroke-linejoin="round"><rect x="330" y="170" width="240" height="240" rx="24"/><path d="M370 210h160v160H370z"/><path d="M350 140v30m50-30v30m50-30v30m50-30v30m50-30v30M350 410v30m50-30v30m50-30v30m50-30v30m50-30v30M300 190h30m-30 50h30m-30 50h30m-30 50h30m-30 50h30M570 190h30m-30 50h30m-30 50h30m-30 50h30m-30 50h30"/></g>
<text x="52" y="530" fill="#fff" font-family="-apple-system,BlinkMacSystemFont,Segoe UI,Arial,sans-serif" font-size="34" font-weight="700">Процессор</text>
<text x="52" y="566" fill="#8d90a4" font-family="-apple-system,BlinkMacSystemFont,Segoe UI,Arial,sans-serif" font-size="18" letter-spacing="3">SETUPLAB OFFLINE</text>
</svg>