<svg xmlns="http://www.w3.org/2000/svg" viewBox="0 0 900 600" role="img" aria-label="Оперативная память">
<defs><linearGradient id="bg" x1="0" x2="1" y1="0" y2="1"><stop stop-color="#11131b"/><stop offset="1" stop-color="#05060a"/></linearGradient><radialGradient id="glow"><stop stop-color="#7656ff" stop-opacity=".5"/><stop offset="1" stop-color="#7656ff" stop-opacity="0"/></radialGradient></defs>
<rect width="900" height="600" fill="url(#bg)"/><circle cx="690" cy="120" r="260" fill="url(#glow)"/>
<g fill="none" stroke="#a896ff" stroke-width="12" stroke-linecap="round" stroke-linejoin="round"><rect x="170" y="245" width="560" height="105" rx="14"/><rect x="220" y="270" width="70" height="52" rx="7"/><rect x="320" y="270" width="70" height="52" rx="7"/><rect x="420" y="270" width="70" height="52" rx="7"/><rect x="520" y="270" width="70" height="52" rx="7"/><rect x="620" y="270" width="60" height="52" rx="7"/><path d="M210 350v28m45-28v28m45-28v28m45-28v28m45-28v28m45-28v28m45-28v28m45-28v28m45-28v28m45-28v28m45-28v28"/></g>
<text x="52" y="530" fill="#fff" font-family="-apple-system,BlinkMacSystemFont,Segoe UI,Arial,sans-serif" font-size="34" font-weight="700">Оперативная память</text>
<text x="52" y="566" fill="#8d90a4" font-family="-apple-system,BlinkMacSystemFont,Segoe UI,Arial,sans-serif" font-size="18" letter-spacing="3">SETUPLAB OFFLINE</text>
</svg>